<svg width="41" height="41" viewBox="0 0 41 41" fill="none" xmlns="http://www.w3.org/2000/svg">
<path d="M38.4999 19.5C38.5068 22.1397 37.89 24.7438 36.6999 27.1C35.2888 29.9235 33.1194 32.2983 30.4348 33.9585C27.7502 35.6187 24.6564 36.4987 21.4999 36.4999C18.8602 36.5068 16.2562 35.8901 13.9 34.7L2.49999 38.4999L6.29998 27.1C5.10985 24.7438 4.4931 22.1397 4.49999 19.5C4.50121 16.3435 5.38121 13.2497 7.04142 10.5651C8.70163 7.88053 11.0765 5.71117 13.9 4.30004C16.2562 3.10991 18.8602 2.49317 21.4999 2.50005H22.4999C26.6686 2.73003 30.606 4.48957 33.5582 7.44175C36.5104 10.3939 38.2699 14.3313 38.4999 18.5V19.5Z" stroke="#1E1E1E" stroke-width="2.5" stroke-linecap="round" stroke-linejoin="round"/>
</svg>
