<svg width="34" height="34" viewBox="0 0 34 34" fill="none" xmlns="http://www.w3.org/2000/svg">
<path d="M5.33333 32H28.6667C30.5076 32 32 30.5076 32 28.6667V5.33333C32 3.49238 30.5076 2 28.6667 2H5.33333C3.49238 2 2 3.49238 2 5.33333V28.6667C2 30.5076 3.49238 32 5.33333 32ZM5.33333 32L23.6667 13.6667L32 22M13.6667 11.1667C13.6667 12.5474 12.5474 13.6667 11.1667 13.6667C9.78595 13.6667 8.66667 12.5474 8.66667 11.1667C8.66667 9.78595 9.78595 8.66667 11.1667 8.66667C12.5474 8.66667 13.6667 9.78595 13.6667 11.1667Z" stroke="#1E1E1E" stroke-width="2" stroke-linecap="round" stroke-linejoin="round"/>
</svg>
