<svg width="28" height="41" viewBox="0 0 28 41" fill="none" xmlns="http://www.w3.org/2000/svg">
<path d="M25.5409 17.1393V20.5C25.5409 23.6195 24.3017 26.6113 22.0958 28.8171C19.89 31.023 16.8982 32.2622 13.7787 32.2622M13.7787 32.2622C10.6591 32.2622 7.66733 31.023 5.46148 28.8171C3.25562 26.6113 2.01639 23.6195 2.01639 20.5V17.1393M13.7787 32.2622V38.9835M7.05736 38.9835H20.5M13.7787 2.01639C12.4417 2.01639 11.1595 2.54749 10.2142 3.49286C9.26879 4.43822 8.73769 5.72041 8.73769 7.05736V20.5C8.73769 21.8369 9.26879 23.1191 10.2142 24.0645C11.1595 25.0098 12.4417 25.5409 13.7787 25.5409C15.1156 25.5409 16.3978 25.0098 17.3432 24.0645C18.2885 23.1191 18.8196 21.8369 18.8196 20.5V7.05736C18.8196 5.72041 18.2885 4.43822 17.3432 3.49286C16.3978 2.54749 15.1156 2.01639 13.7787 2.01639Z" stroke="#1E1E1E" stroke-width="2" stroke-linecap="round" stroke-linejoin="round"/>
</svg>
