<svg width="39" height="34" viewBox="0 0 39 34" fill="none" xmlns="http://www.w3.org/2000/svg">
<path d="M34.1674 4.33914C33.3057 3.47699 32.2825 2.79308 31.1564 2.32646C30.0303 1.85985 28.8232 1.61968 27.6043 1.61968C26.3853 1.61968 25.1782 1.85985 24.0521 2.32646C22.926 2.79308 21.9028 3.47699 21.0411 4.33914L19.2527 6.12756L17.4642 4.33914C15.7236 2.59848 13.3627 1.62058 10.901 1.62058C8.43938 1.62058 6.07853 2.59848 4.33787 4.33914C2.5972 6.0798 1.61931 8.44065 1.61931 10.9023C1.61931 13.364 2.5972 15.7248 4.33787 17.4655L19.2527 32.3803L34.1674 17.4655C35.0296 16.6038 35.7135 15.5806 36.1801 14.4545C36.6467 13.3283 36.8869 12.1213 36.8869 10.9023C36.8869 9.68334 36.6467 8.47631 36.1801 7.35018C35.7135 6.22405 35.0296 5.20088 34.1674 4.33914Z" stroke="#F5F5F5" stroke-width="1.6" stroke-linecap="round" stroke-linejoin="round"/>
</svg>
