<svg width="54" height="77" viewBox="0 0 54 77" fill="none" xmlns="http://www.w3.org/2000/svg">
<path d="M26.8333 3.5H15.1667C12.0725 3.5 9.10501 4.72916 6.91709 6.91709C4.72916 9.10501 3.5 12.0725 3.5 15.1667C3.5 18.2609 4.72916 21.2283 6.91709 23.4162C9.10501 25.6042 12.0725 26.8333 15.1667 26.8333M26.8333 3.5V26.8333M26.8333 3.5H38.5C40.0321 3.5 41.5492 3.80177 42.9646 4.38807C44.3801 4.97438 45.6662 5.83374 46.7496 6.91709C47.8329 8.00044 48.6923 9.28656 49.2786 10.702C49.8649 12.1175 50.1667 13.6346 50.1667 15.1667C50.1667 16.6988 49.8649 18.2158 49.2786 19.6313C48.6923 21.0468 47.8329 22.3329 46.7496 23.4162C45.6662 24.4996 44.3801 25.359 42.9646 25.9453C41.5492 26.5316 40.0321 26.8333 38.5 26.8333M26.8333 26.8333H15.1667M26.8333 26.8333H38.5M26.8333 26.8333V50.1667M15.1667 26.8333C12.0725 26.8333 9.10501 28.0625 6.91709 30.2504C4.72916 32.4383 3.5 35.4058 3.5 38.5C3.5 41.5942 4.72916 44.5617 6.91709 46.7496C9.10501 48.9375 12.0725 50.1667 15.1667 50.1667M38.5 26.8333C36.9679 26.8333 35.4508 27.1351 34.0354 27.7214C32.6199 28.3077 31.3338 29.1671 30.2504 30.2504C29.1671 31.3338 28.3077 32.6199 27.7214 34.0354C27.1351 35.4508 26.8333 36.9679 26.8333 38.5C26.8333 40.0321 27.1351 41.5492 27.7214 42.9646C28.3077 44.3801 29.1671 45.6662 30.2504 46.7496C31.3338 47.8329 32.6199 48.6923 34.0354 49.2786C35.4508 49.8649 36.9679 50.1667 38.5 50.1667C40.0321 50.1667 41.5492 49.8649 42.9646 49.2786C44.3801 48.6923 45.6662 47.8329 46.7496 46.7496C47.8329 45.6662 48.6923 44.3801 49.2786 42.9646C49.8649 41.5492 50.1667 40.0321 50.1667 38.5C50.1667 36.9679 49.8649 35.4508 49.2786 34.0354C48.6923 32.6199 47.8329 31.3338 46.7496 30.2504C45.6662 29.1671 44.3801 28.3077 42.9646 27.7214C41.5492 27.1351 40.0321 26.8333 38.5 26.8333ZM15.1667 50.1667C12.0725 50.1667 9.10501 51.3958 6.91709 53.5837C4.72916 55.7717 3.5 58.7391 3.5 61.8333C3.5 64.9275 4.72916 67.895 6.91709 70.0829C9.10501 72.2708 12.0725 73.5 15.1667 73.5C18.2609 73.5 21.2283 72.2708 23.4162 70.0829C25.6042 67.895 26.8333 64.9275 26.8333 61.8333V50.1667M15.1667 50.1667H26.8333" stroke="#1E1E1E" stroke-width="3.5" stroke-linecap="round" stroke-linejoin="round"/>
</svg>
