<svg width="39" height="35" viewBox="0 0 39 35" fill="none" xmlns="http://www.w3.org/2000/svg">
<path d="M34.293 4.7057C33.4382 3.85053 32.4233 3.17215 31.3063 2.70931C30.1893 2.24647 28.992 2.00825 27.7829 2.00825C26.5738 2.00825 25.3765 2.24647 24.2595 2.70931C23.1425 3.17215 22.1276 3.85053 21.2728 4.7057L19.4989 6.47965L17.7249 4.7057C15.9984 2.97912 13.6566 2.00914 11.2149 2.00914C8.77312 2.00914 6.43138 2.97912 4.70481 4.7057C2.97823 6.43228 2.00825 8.77402 2.00825 11.2158C2.00825 13.6575 2.97823 15.9993 4.70481 17.7258L19.4989 32.5199L34.293 17.7258C35.1482 16.8711 35.8265 15.8562 36.2894 14.7392C36.7522 13.6221 36.9904 12.4249 36.9904 11.2158C36.9904 10.0067 36.7522 8.80939 36.2894 7.69237C35.8265 6.57535 35.1482 5.56047 34.293 4.7057Z" stroke="#F5F5F5" stroke-width="2" stroke-linecap="round" stroke-linejoin="round"/>
</svg>
